<svg width="202" height="60" viewBox="0 0 202 60" fill="none" xmlns="http://www.w3.org/2000/svg">
<path d="M0 15.1C0 10.3467 0 7.97002 0.791545 6.10072C1.80449 3.70857 3.70857 1.80449 6.10072 0.791545C7.97002 0 10.3467 0 15.1 0H186.9C191.653 0 194.03 0 195.899 0.791545C198.291 1.80449 200.196 3.70857 201.208 6.10072C202 7.97002 202 10.3467 202 15.1V44.9C202 49.6533 202 52.03 201.208 53.8993C200.196 56.2914 198.291 58.1955 195.899 59.2085C194.03 60 191.653 60 186.9 60H15.1C10.3467 60 7.97002 60 6.10072 59.2085C3.70857 58.1955 1.80449 56.2914 0.791545 53.8993C0 52.03 0 49.6533 0 44.9V15.1Z" fill="#DFAA5B"/>
<path d="M0 15.1C0 10.3467 0 7.97002 0.791545 6.10072C1.80449 3.70857 3.70857 1.80449 6.10072 0.791545C7.97002 0 10.3467 0 15.1 0H186.9C191.653 0 194.03 0 195.899 0.791545C198.291 1.80449 200.196 3.70857 201.208 6.10072C202 7.97002 202 10.3467 202 15.1V44.9C202 49.6533 202 52.03 201.208 53.8993C200.196 56.2914 198.291 58.1955 195.899 59.2085C194.03 60 191.653 60 186.9 60H15.1C10.3467 60 7.97002 60 6.10072 59.2085C3.70857 58.1955 1.80449 56.2914 0.791545 53.8993C0 52.03 0 49.6533 0 44.9V15.1Z" stroke="black"/>
</svg>
