<svg width="192" height="60" viewBox="0 0 192 60" fill="none" xmlns="http://www.w3.org/2000/svg">
<path d="M0 15.1C0 10.3467 0 7.97002 0.791545 6.10072C1.80449 3.70857 3.70857 1.80449 6.10072 0.791545C7.97002 0 10.3467 0 15.1 0H176.9C181.653 0 184.03 0 185.899 0.791545C188.291 1.80449 190.196 3.70857 191.208 6.10072C192 7.97002 192 10.3467 192 15.1V44.9C192 49.6533 192 52.03 191.208 53.8993C190.196 56.2914 188.291 58.1955 185.899 59.2085C184.03 60 181.653 60 176.9 60H15.1C10.3467 60 7.97002 60 6.10072 59.2085C3.70857 58.1955 1.80449 56.2914 0.791545 53.8993C0 52.03 0 49.6533 0 44.9V15.1Z" fill="white"/>
<path d="M0 15.1C0 10.3467 0 7.97002 0.791545 6.10072C1.80449 3.70857 3.70857 1.80449 6.10072 0.791545C7.97002 0 10.3467 0 15.1 0H176.9C181.653 0 184.03 0 185.899 0.791545C188.291 1.80449 190.196 3.70857 191.208 6.10072C192 7.97002 192 10.3467 192 15.1V44.9C192 49.6533 192 52.03 191.208 53.8993C190.196 56.2914 188.291 58.1955 185.899 59.2085C184.03 60 181.653 60 176.9 60H15.1C10.3467 60 7.97002 60 6.10072 59.2085C3.70857 58.1955 1.80449 56.2914 0.791545 53.8993C0 52.03 0 49.6533 0 44.9V15.1Z" stroke="black"/>
</svg>
