<svg width="1319" height="289" viewBox="0 0 1319 289" fill="none" xmlns="http://www.w3.org/2000/svg">
<path d="M0 15.1C0 10.3467 0 7.97002 0.791545 6.10072C1.80449 3.70857 3.70857 1.80449 6.10072 0.791545C7.97002 0 10.3467 0 15.1 0H1303.9C1308.65 0 1311.03 0 1312.9 0.791545C1315.29 1.80449 1317.2 3.70857 1318.21 6.10072C1319 7.97002 1319 10.3467 1319 15.1V273.9C1319 278.653 1319 281.03 1318.21 282.899C1317.2 285.291 1315.29 287.195 1312.9 288.208C1311.03 289 1308.65 289 1303.9 289H15.0999C10.3467 289 7.97002 289 6.10072 288.208C3.70857 287.195 1.80449 285.291 0.791545 282.899C0 281.03 0 278.653 0 273.9V15.1Z" fill="white"/>
<path d="M0 15.1C0 10.3467 0 7.97002 0.791545 6.10072C1.80449 3.70857 3.70857 1.80449 6.10072 0.791545C7.97002 0 10.3467 0 15.1 0H1303.9C1308.65 0 1311.03 0 1312.9 0.791545C1315.29 1.80449 1317.2 3.70857 1318.21 6.10072C1319 7.97002 1319 10.3467 1319 15.1V273.9C1319 278.653 1319 281.03 1318.21 282.899C1317.2 285.291 1315.29 287.195 1312.9 288.208C1311.03 289 1308.65 289 1303.9 289H15.0999C10.3467 289 7.97002 289 6.10072 288.208C3.70857 287.195 1.80449 285.291 0.791545 282.899C0 281.03 0 278.653 0 273.9V15.1Z" stroke="black"/>
</svg>
