<svg width="418" height="76" viewBox="0 0 418 76" fill="none" xmlns="http://www.w3.org/2000/svg">
<path d="M0 15.1C0 10.3467 0 7.97002 0.791545 6.10072C1.80449 3.70857 3.70857 1.80449 6.10072 0.791545C7.97002 0 10.3467 0 15.1 0H402.9C407.653 0 410.03 0 411.899 0.791545C414.291 1.80449 416.195 3.70857 417.208 6.10072C418 7.97002 418 10.3467 418 15.1V60.9C418 65.6533 418 68.03 417.208 69.8993C416.195 72.2914 414.291 74.1955 411.899 75.2085C410.03 76 407.653 76 402.9 76H15.1C10.3467 76 7.97002 76 6.10072 75.2085C3.70857 74.1955 1.80449 72.2914 0.791545 69.8993C0 68.03 0 65.6533 0 60.9V15.1Z" fill="#DFAA5B"/>
<path d="M0 15.1C0 10.3467 0 7.97002 0.791545 6.10072C1.80449 3.70857 3.70857 1.80449 6.10072 0.791545C7.97002 0 10.3467 0 15.1 0H402.9C407.653 0 410.03 0 411.899 0.791545C414.291 1.80449 416.195 3.70857 417.208 6.10072C418 7.97002 418 10.3467 418 15.1V60.9C418 65.6533 418 68.03 417.208 69.8993C416.195 72.2914 414.291 74.1955 411.899 75.2085C410.03 76 407.653 76 402.9 76H15.1C10.3467 76 7.97002 76 6.10072 75.2085C3.70857 74.1955 1.80449 72.2914 0.791545 69.8993C0 68.03 0 65.6533 0 60.9V15.1Z" stroke="black"/>
</svg>
