<svg width="371" height="75" viewBox="0 0 371 75" fill="none" xmlns="http://www.w3.org/2000/svg">
<path d="M0 15.1C0 10.3467 0 7.97002 0.791545 6.10072C1.80449 3.70857 3.70857 1.80449 6.10072 0.791545C7.97002 0 10.3467 0 15.1 0H355.9C360.653 0 363.03 0 364.899 0.791545C367.291 1.80449 369.196 3.70857 370.208 6.10072C371 7.97002 371 10.3467 371 15.1V59.9C371 64.6533 371 67.03 370.208 68.8993C369.196 71.2914 367.291 73.1955 364.899 74.2085C363.03 75 360.653 75 355.9 75H15.1C10.3467 75 7.97002 75 6.10072 74.2085C3.70857 73.1955 1.80449 71.2914 0.791545 68.8993C0 67.03 0 64.6533 0 59.9V15.1Z" fill="#DFAA5B"/>
<path d="M0 15.1C0 10.3467 0 7.97002 0.791545 6.10072C1.80449 3.70857 3.70857 1.80449 6.10072 0.791545C7.97002 0 10.3467 0 15.1 0H355.9C360.653 0 363.03 0 364.899 0.791545C367.291 1.80449 369.196 3.70857 370.208 6.10072C371 7.97002 371 10.3467 371 15.1V59.9C371 64.6533 371 67.03 370.208 68.8993C369.196 71.2914 367.291 73.1955 364.899 74.2085C363.03 75 360.653 75 355.9 75H15.1C10.3467 75 7.97002 75 6.10072 74.2085C3.70857 73.1955 1.80449 71.2914 0.791545 68.8993C0 67.03 0 64.6533 0 59.9V15.1Z" stroke="black"/>
</svg>
