<svg width="1319" height="277" viewBox="0 0 1319 277" fill="none" xmlns="http://www.w3.org/2000/svg">
<path d="M0 15.1C0 10.3467 0 7.97002 0.791545 6.10072C1.80449 3.70857 3.70857 1.80449 6.10072 0.791545C7.97002 0 10.3467 0 15.1 0H1303.9C1308.65 0 1311.03 0 1312.9 0.791545C1315.29 1.80449 1317.2 3.70857 1318.21 6.10072C1319 7.97002 1319 10.3467 1319 15.1V261.9C1319 266.653 1319 269.03 1318.21 270.899C1317.2 273.291 1315.29 275.196 1312.9 276.208C1311.03 277 1308.65 277 1303.9 277H15.0999C10.3467 277 7.97002 277 6.10072 276.208C3.70857 275.196 1.80449 273.291 0.791545 270.899C0 269.03 0 266.653 0 261.9V15.1Z" fill="white"/>
<path d="M0 15.1C0 10.3467 0 7.97002 0.791545 6.10072C1.80449 3.70857 3.70857 1.80449 6.10072 0.791545C7.97002 0 10.3467 0 15.1 0H1303.9C1308.65 0 1311.03 0 1312.9 0.791545C1315.29 1.80449 1317.2 3.70857 1318.21 6.10072C1319 7.97002 1319 10.3467 1319 15.1V261.9C1319 266.653 1319 269.03 1318.21 270.899C1317.2 273.291 1315.29 275.196 1312.9 276.208C1311.03 277 1308.65 277 1303.9 277H15.0999C10.3467 277 7.97002 277 6.10072 276.208C3.70857 275.196 1.80449 273.291 0.791545 270.899C0 269.03 0 266.653 0 261.9V15.1Z" stroke="black"/>
</svg>
